<?xml version="1.0" standalone="no"?>
<!DOCTYPE svg>
<svg version="1.0" xmlns="http://www.w3.org/2000/svg"
 width="1920.000000pt" height="1920.000000pt" viewBox="0 0 1920.000000 1920.000000"
 preserveAspectRatio="xMidYMid meet">

<g transform="translate(0.000000,1920.000000) scale(0.100000,-0.100000)"
fill="#000000" stroke="none">
<path d="M5860 17918 c0 -144 46 -515 86 -698 233 -1057 918 -2033 2029 -2891
380 -293 595 -429 940 -592 297 -141 666 -314 845 -397 349 -163 710 -385
1019 -628 417 -328 711 -608 986 -937 501 -599 780 -1212 856 -1880 16 -142
16 -459 0 -600 -116 -1019 -719 -1941 -1846 -2821 -293 -229 -566 -401 -901
-568 l-142 -71 370 -175 c203 -96 386 -181 407 -189 36 -13 37 -13 131 44 698
423 1443 1098 1882 1705 465 643 718 1268 805 1980 24 199 24 589 -1 795 -62
524 -221 1005 -488 1480 -243 432 -508 776 -892 1160 -405 404 -837 749 -1292
1031 -127 79 -189 109 -1209 587 -352 165 -706 383 -1015 625 -968 760 -1538
1533 -1764 2392 -43 165 -86 441 -86 556 0 28 -3 66 -6 83 l-6 31 -354 0 -354
0 0 -22z"/>
<path d="M12636 17909 c-3 -17 -6 -55 -6 -83 0 -117 -55 -460 -96 -603 l-15
-53 -2859 0 -2859 0 33 -97 c40 -117 67 -185 108 -275 l31 -68 2688 0 c1479 0
2689 -3 2689 -6 0 -7 -94 -195 -128 -254 -35 -63 -76 -130 -145 -237 l-59 -93
-2344 0 c-1289 0 -2344 -3 -2344 -7 1 -12 168 -223 264 -333 l87 -100 1996 -2
1996 -3 -194 -195 c-107 -108 -233 -231 -280 -273 l-86 -77 -1424 0 -1424 -1
40 -35 c65 -58 281 -225 410 -318 l120 -86 860 -2 859 -3 -124 -81 c-212 -137
-321 -200 -543 -312 -76 -39 -137 -74 -135 -79 2 -4 68 -39 148 -76 80 -38
181 -86 225 -107 296 -139 406 -190 415 -190 28 0 367 222 570 374 798 597
1358 1209 1742 1906 289 526 442 1028 488 1605 5 66 10 137 10 158 l0 37 -354
0 -353 0 -7 -31z"/>
<path d="M8523 13646 c-455 -288 -874 -625 -1268 -1020 -303 -304 -509 -557
-727 -892 -702 -1079 -853 -2282 -431 -3429 152 -413 421 -881 727 -1265 365
-458 880 -931 1436 -1321 312 -219 381 -256 1330 -700 394 -184 649 -322 870
-473 l75 -51 -845 -5 -845 -5 -110 -77 c-116 -82 -328 -244 -411 -315 l-49
-43 1415 0 1415 0 185 -174 c102 -95 227 -219 278 -275 l94 -101 -1985 0
-1985 0 -69 -78 c-78 -87 -176 -207 -247 -299 l-47 -63 2343 -2 2343 -3 88
-138 c48 -76 124 -208 168 -293 l81 -154 -2685 0 c-2136 0 -2687 -3 -2695 -13
-22 -27 -162 -389 -162 -419 0 -4 1284 -8 2854 -8 l2854 0 31 -127 c40 -171
59 -281 72 -438 5 -71 13 -149 15 -173 l5 -42 356 0 356 0 -7 103 c-41 639
-198 1172 -508 1722 -243 431 -507 775 -893 1160 -406 407 -857 766 -1311
1043 -88 54 -515 261 -1093 529 -172 80 -374 184 -517 265 -72 41 -312 193
-345 219 -23 18 3 19 834 19 l858 0 97 67 c103 71 370 277 437 337 l40 35
-1425 1 -1425 0 -180 169 c-163 153 -366 362 -365 376 0 3 895 5 1989 5 l1990
0 87 100 c96 110 263 321 264 333 0 4 -1055 7 -2344 7 l-2345 0 -87 137 c-75
120 -244 428 -244 446 0 4 1211 8 2692 9 l2691 3 45 105 c24 58 61 156 82 218
l39 112 -2859 0 -2859 0 -11 38 c-36 132 -74 336 -95 514 l-6 58 2973 2 2973
3 3 195 c1 107 0 205 -3 218 l-5 22 -2971 0 -2970 0 6 53 c16 130 48 313 76
430 l31 127 2854 0 c1570 0 2854 4 2854 8 0 19 -64 195 -112 310 l-51 122
-2689 0 -2690 0 81 154 c44 85 120 217 168 293 l88 138 2343 3 2343 2 -47 63
c-71 92 -169 212 -247 299 l-69 78 -1985 2 -1985 3 174 176 c95 96 221 219
279 272 l106 97 1414 0 1414 0 -40 35 c-69 60 -315 249 -425 326 l-105 74
-845 5 -845 5 117 77 c161 106 334 206 522 300 87 44 154 83 150 87 -17 14
-783 371 -796 371 -7 -1 -72 -38 -145 -84z"/>
<path d="M8523 5246 c-455 -288 -874 -625 -1268 -1020 -695 -697 -1129 -1445
-1309 -2256 -40 -182 -86 -554 -86 -698 l0 -22 354 0 354 0 6 23 c3 12 6 47 6
77 0 69 23 267 45 385 138 758 612 1524 1365 2206 478 433 906 730 1399 969
l95 46 -40 16 c-21 9 -102 46 -179 83 -401 191 -583 275 -596 275 -8 -1 -73
-38 -146 -84z"/>
</g>
</svg>
